HIERARCHY
ROOT SpineBase
{
  OFFSET 0.000000 0.000000 0.000000
  CHANNELS 6 Xposition Yposition Zposition Zrotation Xrotation Yrotation
  JOINT SpineMid
  {
    OFFSET -0.000000 25.917301 0.000000
    CHANNELS 3 Zrotation Xrotation Yrotation
    JOINT SpineShoulder
    {
      OFFSET 0.000030 19.442669 -0.592580
      CHANNELS 3 Zrotation Xrotation Yrotation
      JOINT Neck
      {
        OFFSET -0.044697 6.525186 -0.507842
        CHANNELS 3 Zrotation Xrotation Yrotation
        JOINT Head
        {
          OFFSET -2.056074 12.799019 -1.477783
          CHANNELS 3 Zrotation Xrotation Yrotation
          End Site
          {
            OFFSET 0 0 0
          }
        }
      }
      JOINT ShoulderLeft
      {
        OFFSET -13.519206 -2.093341 6.502422
        CHANNELS 3 Zrotation Xrotation Yrotation
        JOINT ElbowLeft
        {
          OFFSET -4.366543 -19.288484 -0.436369
          CHANNELS 3 Zrotation Xrotation Yrotation
          JOINT WristLeft
          {
            OFFSET -5.071378 -12.613748 -15.564716
            CHANNELS 3 Zrotation Xrotation Yrotation
            JOINT HandLeft
            {
              OFFSET -1.926662 -4.337761 -5.323450
              CHANNELS 3 Zrotation Xrotation Yrotation
              JOINT HandTipLeft
              {
                OFFSET -2.513466 -5.262949 -5.453285
                CHANNELS 3 Zrotation Xrotation Yrotation
                End Site
                {
                  OFFSET 0 0 0
                }
              }
              JOINT ThumbLeft
              {
                OFFSET -3.057711 3.724563 -0.034530
                CHANNELS 3 Zrotation Xrotation Yrotation
                End Site
                {
                  OFFSET 0 0 0
                }
              }
            }
          }
        }
      }
      JOINT ShoulderRight
      {
        OFFSET 11.047957 -0.121174 -9.819521
        CHANNELS 3 Zrotation Xrotation Yrotation
        JOINT ElbowRight
        {
          OFFSET 5.054026 -18.221378 -5.639250
          CHANNELS 3 Zrotation Xrotation Yrotation
          JOINT WristRight
          {
            OFFSET -14.050633 -11.278577 -9.526359
            CHANNELS 3 Zrotation Xrotation Yrotation
            JOINT HandRight
            {
              OFFSET -3.746353 -2.732245 -2.824895
              CHANNELS 3 Zrotation Xrotation Yrotation
              JOINT HandTipRight
              {
                OFFSET -6.323555 -3.121690 -4.283281
                CHANNELS 3 Zrotation Xrotation Yrotation
                End Site
                {
                  OFFSET 0 0 0
                }
              }
              JOINT ThumbRight
              {
                OFFSET 0.959526 -2.669389 -3.999007
                CHANNELS 3 Zrotation Xrotation Yrotation
                End Site
                {
                  OFFSET 0 0 0
                }
              }
            }
          }
        }
      }
    }
  }
  JOINT HipLeft
  {
    OFFSET -6.240699 1.114617 0.586975
    CHANNELS 3 Zrotation Xrotation Yrotation
    JOINT KneeLeft
    {
      OFFSET -23.990025 3.579878 -15.112592
      CHANNELS 3 Zrotation Xrotation Yrotation
      JOINT AnkleLeft
      {
        OFFSET 1.295017 -34.363737 -6.092415
        CHANNELS 3 Zrotation Xrotation Yrotation
        JOINT FootLeft
        {
          OFFSET -3.898775 -4.186337 -7.725347
          CHANNELS 3 Zrotation Xrotation Yrotation
          End Site
          {
            OFFSET 0 0 0
          }
        }
      }
    }
  }
  JOINT HipRight
  {
    OFFSET 5.435612 1.447577 -6.453452
    CHANNELS 3 Zrotation Xrotation Yrotation
    JOINT KneeRight
    {
      OFFSET -13.154648 7.516163 -25.525367
      CHANNELS 3 Zrotation Xrotation Yrotation
      JOINT AnkleRight
      {
        OFFSET 6.244244 -40.979452 8.014922
        CHANNELS 3 Zrotation Xrotation Yrotation
        JOINT FootRight
        {
          OFFSET -5.074163 -1.995649 -8.339233
          CHANNELS 3 Zrotation Xrotation Yrotation
          End Site
          {
            OFFSET 0 0 0
          }
        }
      }
    }
  }
}
MOTION
Frames: 6
Frame Time: 0.033333
53.791657 33.128546 365.358277 -44.608489 46.075820 -62.423607 0.034751 2.243491 82.305681 0.074574 0.884463 -1.000958 11.481264 2.570185 16.262885 0.000000 0.000000 0.000000 14.240034 16.724361 -3.575805 -7.521997 -28.203510 14.321810 3.366209 7.425105 -3.842375 17.660720 -28.020845 -2.133823 0.000000 0.000000 0.000000 0.000000 0.000000 0.000000 -24.464791 -42.441385 -11.172898 -50.100198 72.319603 27.471426 63.085982 65.663785 -57.895143 53.428109 -64.215845 69.156026 0.000000 0.000000 0.000000 0.000000 0.000000 0.000000 54.987518 27.648430 109.008841 -21.432010 -3.139569 -37.273590 20.024003 16.280300 -24.027255 0.000000 0.000000 0.000000 48.421942 15.227733 39.257053 -28.292274 -15.827861 19.650125 40.301356 3.739954 4.089542 0.000000 0.000000 0.000000
53.911836 33.035322 365.321765 -42.885913 47.043495 -63.274517 -0.152724 2.384783 82.960348 -0.126979 0.586224 -1.116220 8.683882 1.067923 14.138775 0.000000 0.000000 0.000000 15.149767 13.699889 -3.543689 -8.459700 -25.920825 13.115523 2.150917 9.559682 -3.426150 17.200366 -36.651427 1.553181 0.000000 0.000000 0.000000 0.000000 0.000000 0.000000 -22.093832 -41.273952 -8.644969 -48.867202 73.344267 22.433395 27.462516 72.453707 -36.418353 91.511020 -52.000881 98.627840 0.000000 0.000000 0.000000 0.000000 0.000000 0.000000 55.884472 28.932194 112.524755 -20.697552 1.079175 -39.233181 16.293940 15.104509 -19.274787 0.000000 0.000000 0.000000 48.069825 14.386469 42.571990 -26.456394 -14.348488 18.528634 40.658584 -1.236109 5.562814 0.000000 0.000000 0.000000
54.646809 32.723297 365.354207 -40.468410 47.889771 -64.334169 -0.411656 2.217952 83.250552 -0.373315 0.356367 -1.229226 7.308153 0.369092 13.139717 0.000000 0.000000 0.000000 14.796026 12.239599 -3.981150 -6.293151 -24.709710 12.378029 -1.831636 9.040181 -1.197793 15.049873 -40.482637 2.485300 0.000000 0.000000 0.000000 0.000000 0.000000 0.000000 -21.598929 -38.438928 -6.083605 -45.103853 75.351474 15.506839 -99.093737 -13.302076 -22.504258 111.098048 -5.911130 -15.224423 0.000000 0.000000 0.000000 0.000000 0.000000 0.000000 56.342196 29.901934 115.979607 -20.992773 5.882246 -40.793473 14.423102 16.889896 -17.717495 0.000000 0.000000 0.000000 47.755059 13.292957 47.326601 -24.688774 -12.743626 15.904606 39.380856 -3.588516 5.651976 0.000000 0.000000 0.000000
55.788187 32.374762 365.354715 -37.873622 48.833013 -65.428137 -0.540384 1.961444 83.413384 -0.450603 0.353842 -1.172292 5.768665 -0.875748 11.837116 0.000000 0.000000 0.000000 13.990201 12.146299 -4.800688 -2.764841 -24.905300 11.660880 -6.530503 12.126466 0.986598 11.139333 -45.375111 4.000453 0.000000 0.000000 0.000000 0.000000 0.000000 0.000000 -23.010743 -34.424087 -3.821424 -40.711143 79.048771 8.213643 176.502162 -3.622693 -111.498458 155.611457 10.788547 -109.974773 0.000000 0.000000 0.000000 0.000000 0.000000 0.000000 56.891903 30.962356 119.039201 -20.476157 9.811284 -42.418702 6.273889 21.467174 -9.199786 0.000000 0.000000 0.000000 46.093641 11.901422 51.978043 -23.601073 -10.773898 13.564374 39.633505 -8.428325 7.231201 0.000000 0.000000 0.000000
57.160169 32.033421 365.379984 -35.428893 49.627811 -66.341583 -0.619128 1.549269 83.266820 -0.516077 0.423262 -1.111581 4.831960 -2.178375 10.847460 0.000000 0.000000 0.000000 12.223659 12.553541 -5.952490 2.823286 -24.970990 11.726863 -13.289029 12.414949 4.601712 9.553786 -50.072614 3.995084 0.000000 0.000000 0.000000 0.000000 0.000000 0.000000 -25.441425 -29.586506 -1.483373 -80.509667 86.704200 44.648323 -177.736564 5.461658 -121.565714 177.472061 36.939854 -125.696933 0.000000 0.000000 0.000000 0.000000 0.000000 0.000000 57.678994 32.301265 120.988194 -19.343212 13.905389 -43.544717 0.384282 25.064321 -5.925206 0.000000 0.000000 0.000000 43.427988 10.228298 55.667185 -23.334015 -9.542337 11.343735 40.908396 -12.341985 7.813768 0.000000 0.000000 0.000000
58.682785 31.749241 365.491533 -33.036981 50.103567 -67.147378 -0.674655 1.005868 82.805419 -0.469667 0.481479 -1.005411 4.225047 -2.959476 10.217931 0.000000 0.000000 0.000000 11.172911 12.278991 -6.664028 7.090327 -23.510586 11.075701 -23.159414 7.173669 10.445233 9.441525 -60.246852 1.609880 0.000000 0.000000 0.000000 0.000000 0.000000 0.000000 -29.178403 -24.219306 0.767508 131.440655 85.957392 -166.793553 178.835188 23.095087 -130.831548 -155.122642 41.909439 -145.774341 0.000000 0.000000 0.000000 0.000000 0.000000 0.000000 57.818336 32.390745 122.041844 -16.892612 16.234840 -44.574990 -8.010596 23.806617 2.015654 0.000000 0.000000 0.000000 40.097821 8.262181 57.885962 -24.072642 -8.346119 9.921680 43.678192 -16.359885 7.778228 0.000000 0.000000 0.000000
